<?xml version="1.0" encoding="UTF-8" standalone="no"?>
<!-- Created with Inkscape (http://www.inkscape.org/) -->

<svg
   width="20"
   height="20"
   viewBox="0 0 5.2916665 5.2916666"
   version="1.1"
   id="svg1"
   xml:space="preserve"
   inkscape:version="1.4 (86a8ad7, 2024-10-11)"
   sodipodi:docname="calendar.svg"
   xmlns:inkscape="http://www.inkscape.org/namespaces/inkscape"
   xmlns:sodipodi="http://sodipodi.sourceforge.net/DTD/sodipodi-0.dtd"
   xmlns="http://www.w3.org/2000/svg"
   xmlns:svg="http://www.w3.org/2000/svg"><sodipodi:namedview
     id="namedview1"
     pagecolor="#ffffff"
     bordercolor="#000000"
     borderopacity="0.25"
     inkscape:showpageshadow="2"
     inkscape:pageopacity="0.0"
     inkscape:pagecheckerboard="0"
     inkscape:deskcolor="#d1d1d1"
     inkscape:document-units="mm"
     inkscape:zoom="22.036139"
     inkscape:cx="5.40022"
     inkscape:cy="11.36769"
     inkscape:window-width="1920"
     inkscape:window-height="991"
     inkscape:window-x="-9"
     inkscape:window-y="-9"
     inkscape:window-maximized="1"
     inkscape:current-layer="layer1" /><defs
     id="defs1" /><g
     inkscape:label="Layer 1"
     inkscape:groupmode="layer"
     id="layer1"><path
       style="fill:#4d4d4d;stroke-width:0.031599"
       d="M 0.86141838,5.2747086 C 0.70179985,5.2411771 0.56827309,5.1761198 0.45008419,5.0743002 0.29075776,4.9370412 0.19051438,4.7657517 0.1486099,4.5591602 0.13155047,4.4750624 0.13138402,4.4578593 0.13144766,2.7783662 c 4.08e-5,-1.0915428 0.003052,-1.7142521 0.008437,-1.7474424 0.0465961,-0.28709658 0.21650835,-0.52838596 0.469771,-0.66711704 0.0941272,-0.05156 0.25105969,-0.0972615 0.36614808,-0.10662835 l 0.0292625,-0.00238 0.00421,-0.0756702 c 0.00529,-0.0947623 0.026744,-0.1323156 0.092725,-0.16225136 0.045948,-0.02084683 0.085657,-0.02120926 0.128791,-0.001175 0.070395,0.03269346 0.093892,0.07348598 0.1018623,0.17683235 l 0.00512,0.0664455 h 0.2276254 0.2276279 l 0.00378,-0.0689745 c 0.00558,-0.10170161 0.032605,-0.14583309 0.1100491,-0.17972155 0.066919,-0.02928287 0.1572328,0.0062924 0.1962522,0.07730501 0.00833,0.01516321 0.015454,0.05318322 0.018017,0.09614612 l 0.00424,0.0710647 0.2320045,0.002223 0.2320061,0.002223 1.632e-4,-0.0649264 c 1.256e-4,-0.0448192 0.00494,-0.0753903 0.015535,-0.09871449 0.052849,-0.11634998 0.2117335,-0.12684951 0.2832904,-0.01872051 0.018567,0.02805784 0.022536,0.04480118 0.025547,0.10778778 l 0.00357,0.07457 0.2309764,-0.002221 0.2309764,-0.002221 0.00423,-0.0759634 c 0.00374,-0.0672196 0.00698,-0.07957191 0.028133,-0.10730891 0.047104,-0.06175815 0.1187846,-0.08520468 0.1832625,-0.0599463 0.077413,0.03032498 0.1006953,0.06703867 0.106247,0.16753663 l 0.00418,0.0756818 0.2309504,0.002221 0.2309502,0.002221 0.00367,-0.0698751 c 0.00296,-0.0563798 0.00797,-0.0772135 0.025935,-0.10787281 0.064889,-0.11072383 0.2232658,-0.10455361 0.282215,0.01099546 0.01294,0.0253837 0.016354,0.04917064 0.016354,0.11426185 v 0.0822044 l 0.039711,0.0104635 c 0.021842,0.005755 0.073574,0.026938 0.1149578,0.047073 0.2413225,0.11741019 0.4156343,0.32779579 0.4877607,0.58869849 l 0.022233,0.080419 v 1.7557119 1.755714 l -0.019826,0.075245 C 5.1295191,4.6436627 5.1066764,4.7098606 5.0896675,4.7493841 4.9935087,4.9728295 4.7920949,5.1596071 4.559299,5.2412098 4.40635,5.2948244 4.5111642,5.2920812 2.6405381,5.2914286 0.99249898,5.2907758 0.93572501,5.2902861 0.86141674,5.2747102 Z M 4.4537815,4.9345282 c 0.1412716,-0.054174 0.2623913,-0.161704 0.3249698,-0.2885027 0.06354,-0.1287487 0.059292,-0.015323 0.059563,-1.5904491 l 3.263e-4,-1.4129305 -2.1906497,-0.00211 -2.19065138,-0.00211 0.002187,1.4317587 0.002187,1.4317576 0.0236065,0.066803 c 0.0441304,0.1248796 0.1251651,0.2305586 0.23009517,0.3000693 0.0654702,0.04337 0.10168269,0.059509 0.18104646,0.080695 0.0563481,0.015046 0.12222615,0.015551 1.77243385,0.013937 l 1.7139091,-0.00168 z M 1.3603832,4.2720348 V 4.0462999 H 1.5902974 1.820213 V 4.2720348 4.4977696 H 1.5902974 1.3603832 Z m 1.0617878,0 V 4.0462999 H 2.6479059 2.8736408 V 4.2720348 4.4977696 H 2.6479059 2.422171 Z m 1.0617877,0 V 4.0462999 h 0.2257349 0.225735 V 4.2720348 4.4977696 H 3.7096936 3.4839587 Z M 1.3603832,3.3481962 V 3.1180128 l 0.2278238,0.00222 0.2278252,0.00222 v 0.2257423 0.2257348 l -0.2278252,0.00222 -0.2278238,0.00222 z m 1.0617878,0 V 3.1182804 h 0.2257349 0.2257349 v 0.2299158 0.229914 H 2.6479059 2.422171 Z m 1.0617877,0 V 3.1182804 h 0.2257349 0.225735 v 0.2299158 0.229914 H 3.7096936 3.4839587 Z M 1.3603832,2.4200413 V 2.1899932 l 0.2278238,0.00222 0.2278252,0.00222 0.00222,0.2278255 0.00222,0.2278236 H 1.5904231 1.3603735 Z m 1.0617878,1.37e-4 V 2.1902624 H 2.6479059 2.8736408 V 2.4201783 2.6500924 H 2.6479059 2.422171 Z m 1.0617877,0 V 2.1902624 h 0.2257349 0.225735 V 2.4201783 2.6500924 H 3.7096936 3.4839587 Z M 4.8398693,1.1995375 C 4.8368693,1.0681455 4.8248883,1.003215 4.7891233,0.9243301 4.7483933,0.8345003 4.6952543,0.76768841 4.6132107,0.70315514 c -0.040287,-0.031689 -0.1006513,-0.067954 -0.1131122,-0.067954 -0.00248,0 -0.00452,0.0175401 -0.00452,0.038978 0,0.10117545 -0.1007815,0.17579236 -0.20198,0.14954197 -0.077806,-0.020182 -0.1152963,-0.0749075 -0.123423,-0.18015953 l -0.00485,-0.062704 -0.2198244,-0.001689 c -0.1209043,-9.3015e-4 -0.2251702,3.5902e-4 -0.2317025,0.002869 -0.00883,0.00339 -0.011799,0.0204781 -0.011554,0.0666138 3.264e-4,0.0738281 -0.015258,0.11152604 -0.06164,0.14849513 -0.053771,0.0428632 -0.1401815,0.0429195 -0.1962847,1.2631e-4 -0.043091,-0.0328676 -0.060703,-0.0758961 -0.060703,-0.14830373 0,-0.045991 -0.00309,-0.0633275 -0.01188,-0.0667017 -0.018363,-0.007046 -0.4341917,-0.00641 -0.4447189,6.8539e-4 -0.00512,0.003448 -0.011113,0.0350302 -0.013316,0.0701809 -0.00719,0.11450516 -0.062693,0.17436497 -0.1617056,0.17436497 -0.036379,0 -0.057057,-0.005138 -0.08383,-0.0208274 -0.053851,-0.0315585 -0.072878,-0.0688921 -0.077213,-0.15150574 -0.00228,-0.0433942 -0.00739,-0.070563 -0.01374,-0.073001 -0.00557,-0.002136 -0.1095075,-0.003304 -0.230983,-0.002593 l -0.2208637,0.001289 -0.00499,0.0728946 c -0.0041,0.0597684 -0.00897,0.0789334 -0.027182,0.10643172 -0.056035,0.0846744 -0.182241,0.0933595 -0.2509814,0.0172718 -0.033959,-0.0375879 -0.04698,-0.0773306 -0.047044,-0.14359417 l -4.73e-5,-0.0473225 -0.068973,-0.005611 c -0.037936,-0.003086 -0.1404573,-0.004364 -0.2278252,-0.002841 l -0.15885,0.002769 -0.00656,0.0662253 c -0.0036,0.0364242 -0.01224,0.0782119 -0.019198,0.0928615 -0.043549,0.0917737 -0.168677,0.11907991 -0.247592,0.0540315 -0.043084,-0.035514 -0.056895,-0.0708102 -0.056895,-0.14540748 v -0.0635306 l -0.027172,1.2321e-4 c -0.0489687,2.2846e-4 -0.13457115,0.0250291 -0.20674985,0.059914 -0.058321,0.0281862 -0.0843197,0.0477697 -0.14660935,0.11043026 -0.0616596,0.0620347 -0.0820855,0.0893553 -0.11006859,0.14723314 C 0.46901928,1.0053546 0.45743961,1.062018 0.45743961,1.2021789 v 0.1186195 l 2.19255079,-0.00211 2.1925509,-0.00211 z"
       id="path1" /></g></svg>
