<?xml version="1.0" encoding="UTF-8" standalone="no"?>
<!-- Created with Inkscape (http://www.inkscape.org/) -->

<svg
   width="20"
   height="20"
   viewBox="0 0 5.2916665 5.2916666"
   version="1.1"
   id="svg1"
   xml:space="preserve"
   inkscape:version="1.4 (86a8ad7, 2024-10-11)"
   sodipodi:docname="graph.svg"
   xmlns:inkscape="http://www.inkscape.org/namespaces/inkscape"
   xmlns:sodipodi="http://sodipodi.sourceforge.net/DTD/sodipodi-0.dtd"
   xmlns="http://www.w3.org/2000/svg"
   xmlns:svg="http://www.w3.org/2000/svg"><sodipodi:namedview
     id="namedview1"
     pagecolor="#ffffff"
     bordercolor="#000000"
     borderopacity="0.25"
     inkscape:showpageshadow="2"
     inkscape:pageopacity="0.0"
     inkscape:pagecheckerboard="0"
     inkscape:deskcolor="#d1d1d1"
     inkscape:document-units="mm"
     inkscape:zoom="22.036139"
     inkscape:cx="14.77119"
     inkscape:cy="7.7372901"
     inkscape:window-width="1920"
     inkscape:window-height="991"
     inkscape:window-x="-9"
     inkscape:window-y="-9"
     inkscape:window-maximized="1"
     inkscape:current-layer="layer1" /><defs
     id="defs1" /><g
     inkscape:label="Layer 1"
     inkscape:groupmode="layer"
     id="layer1"><path
       style="fill:#4d4d4d;stroke-width:0.0300779;fill-opacity:1"
       d="M 0.16851464,5.2828621 C 0.09624998,5.2562924 0.02356715,5.1791295 0.00379978,5.1079823 -0.00262176,5.084835 -0.00438892,4.4067022 -0.00272131,2.6329992 L -3.9448538e-4,0.18984954 0.02036344,0.1460885 C 0.04678384,0.09042028 0.09113969,0.04610665 0.14679551,0.01965644 0.18333856,0.00230828 0.2017196,-0.0011016 0.25820914,-0.0011016 c 0.0564871,0 0.074878,0.00343437 0.11141364,0.02075804 0.0556682,0.0264204 0.0999819,0.07077624 0.12643206,0.12643206 l 0.020758,0.043761 0.00203,2.2899016 0.00203,2.2899015 2.28991496,0.00204 2.2899149,0.00204 0.043761,0.020758 c 0.055669,0.02642 0.099981,0.070777 0.1264321,0.1264322 0.017348,0.036543 0.020758,0.054924 0.020758,0.1114135 0,0.056487 -0.00344,0.074878 -0.020758,0.1114137 -0.02642,0.055669 -0.070776,0.099981 -0.1264321,0.126432 L 5.1007027,5.29094 2.6495948,5.29239 C 0.57524124,5.2936285 0.19395039,5.2921607 0.16851613,5.2828005 Z M 1.2699854,3.9655989 C 1.1871377,3.9487735 1.1188603,3.8949695 1.0802788,3.816119 1.061736,3.7783117 1.0582515,3.7608964 1.0583261,3.707386 1.0584191,3.5866636 1.0073471,3.6453909 1.8213223,2.8291149 2.6038926,2.0442763 2.5806299,2.0653859 2.6776494,2.0520425 c 0.04525,-0.00622 0.1175365,0.00694 0.1630473,0.029695 0.019788,0.0099 0.1769655,0.1605906 0.4158354,0.3987325 l 0.3840044,0.3828214 0.6147402,-0.614078 c 0.6972374,-0.6964811 0.65268,-0.6587481 0.7778831,-0.6587481 0.057754,0 0.074202,0.00321 0.1124018,0.021952 0.1320571,0.064822 0.185687,0.2174062 0.1237664,0.3520466 -0.019788,0.043091 -0.092665,0.1184525 -0.7438358,0.7695745 -0.8170426,0.816989 -0.7585591,0.7663475 -0.885014,0.7663475 -0.1212799,0 -0.1073496,0.010877 -0.5471559,-0.428026 L 2.7091775,2.6889918 2.0865481,3.3103557 C 1.5506523,3.8451648 1.4583818,3.9339821 1.4241319,3.9479888 1.3749375,3.9680748 1.3157548,3.9748547 1.2700001,3.9655609 Z"
       id="path1" /></g></svg>
